<svg xmlns="http://www.w3.org/2000/svg" width="39.867" height="38" viewBox="0 0 39.867 38">
  <g id="Group_42" data-name="Group 42" transform="translate(-617.067 -186)">
    <g id="Group_35" data-name="Group 35">
      <path id="Path_20" data-name="Path 20" d="M656.225,215.78a3.355,3.355,0,0,1-3.067,2.989q-10.233.807-20.466.591-5.925-.125-11.85-.591a3.355,3.355,0,0,1-3.066-2.989,120.947,120.947,0,0,1-.443-21.09c.075-1.13.748-1.48,1.24-2.1a2.245,2.245,0,0,0,.5-1.229,3.352,3.352,0,0,1,3.067-2.988,164.025,164.025,0,0,1,28.885-.225,3.356,3.356,0,0,1,3.067,2.988c.183,1.689,2.46,1.862,2.573,3.55a120.931,120.931,0,0,1-.443,21.089Z" fill="#e3eaf4"/>
      <path id="Path_21" data-name="Path 21" d="M656.668,194.692l-.016,0a223.337,223.337,0,0,0-39.3,0l-.016,0q.168-2.533.443-5.067a3.356,3.356,0,0,1,3.067-2.989,205.568,205.568,0,0,1,32.316,0,3.356,3.356,0,0,1,3.066,2.989Q656.5,192.158,656.668,194.692Z" fill="#fff"/>
      <circle id="Ellipse_2" data-name="Ellipse 2" cx="1.882" cy="1.882" r="1.882" transform="translate(620.261 188.378)" fill="#dd636e"/>
      <circle id="Ellipse_3" data-name="Ellipse 3" cx="1.882" cy="1.882" r="1.882" transform="translate(631.551 188.378)" fill="#78c2a4"/>
      <circle id="Ellipse_4" data-name="Ellipse 4" cx="1.882" cy="1.882" r="1.882" transform="translate(625.906 188.378)" fill="#f1e64d"/>
    </g>
    <g id="Group_36" data-name="Group 36">
      <path id="Path_22" data-name="Path 22" d="M646.7,212.188a68.288,68.288,0,0,1,9.3,7.444s.362,1.246-1.365,2.972-2.972,1.364-2.972,1.364a68.235,68.235,0,0,1-7.444-9.3" fill="#8ca2bb"/>
      <path id="Path_23" data-name="Path 23" d="M644.221,214.669l.9-.9c4.367,4.81,8.01,8.509,8.887,9.394a2.857,2.857,0,0,1-2.345.807,68.215,68.215,0,0,1-7.443-9.3Z" fill="#485e76"/>
      <circle id="Ellipse_5" data-name="Ellipse 5" cx="11.262" cy="11.262" r="11.262" transform="translate(627.398 195.366)" fill="#74b95c"/>
      <path id="Path_24" data-name="Path 24" d="M639.512,217.859c-.282.02-.565.031-.851.031a11.262,11.262,0,1,1,0-22.524c.286,0,.569.01.851.031a11.263,11.263,0,0,0,0,22.462Z" fill="#86bf71"/>
      <circle id="Ellipse_6" data-name="Ellipse 6" cx="8.86" cy="8.86" r="8.86" transform="translate(629.8 197.767)" fill="#e3eaf4"/>
      <path id="Path_25" data-name="Path 25" d="M629.8,206.628a8.86,8.86,0,0,1,8.86-8.86,9.035,9.035,0,0,1,1.217.082,8.862,8.862,0,0,0,0,17.555,9.034,9.034,0,0,1-1.217.083,8.86,8.86,0,0,1-8.86-8.86Z" fill="#b9cad9"/>
    </g>
    <g id="Group_41" data-name="Group 41">
      <g id="Group_38" data-name="Group 38">
        <g id="Group_37" data-name="Group 37">
          <path id="Path_26" data-name="Path 26" d="M632.607,209.364a1.889,1.889,0,0,1-1.277-.553.6.6,0,0,1,.849-.853c.021.02.327.3.594.154a.46.46,0,0,0,.23-.406v-4.195a.6.6,0,1,1,1.2,0v4.195a1.665,1.665,0,0,1-.849,1.459,1.535,1.535,0,0,1-.751.2Z" fill="#314963"/>
        </g>
      </g>
      <g id="Group_40" data-name="Group 40">
        <g id="Group_39" data-name="Group 39">
          <path id="Path_27" data-name="Path 27" d="M642.361,206.534a.6.6,0,0,1-.6-.6v-2.421a.6.6,0,0,1,.6-.6h1.524a1.81,1.81,0,1,1,0,3.619c-.33,0-1.522.006-1.522.006Zm.6-2.421v1.214l.923,0a.606.606,0,1,0,0-1.212Z" fill="#314963"/>
          <path id="Path_28" data-name="Path 28" d="M642.361,209.361a.6.6,0,0,1-.6-.6v-2.832a.6.6,0,0,1,.6-.6h1.79a2.014,2.014,0,1,1,0,4.029c-.386,0-1.788.006-1.788.006Zm.6-2.831v1.625l1.189,0a.811.811,0,1,0,0-1.621Z" fill="#314963"/>
        </g>
        <path id="Path_29" data-name="Path 29" d="M638.091,209.361a3.226,3.226,0,1,1,3.226-3.226A3.229,3.229,0,0,1,638.091,209.361Zm0-5.248a2.022,2.022,0,1,0,2.023,2.022,2.024,2.024,0,0,0-2.023-2.022Z" fill="#314963"/>
      </g>
    </g>
  </g>
</svg>
