<svg xmlns="http://www.w3.org/2000/svg" width="4.981" height="8.432" viewBox="0 0 4.981 8.432">
  <g id="Group_2" data-name="Group 2" transform="translate(-507.723 -76.187)">
    <g id="Group_1" data-name="Group 1">
      <path id="Path_1" data-name="Path 1" d="M512.287,84.484l.279-.276a.465.465,0,0,0,0-.653l-3.151-3.15,3.154-3.155a.461.461,0,0,0,0-.652l-.276-.276a.462.462,0,0,0-.653,0l-3.769,3.755a.472.472,0,0,0-.148.327v0a.476.476,0,0,0,.148.326l3.759,3.752a.466.466,0,0,0,.33.135A.459.459,0,0,0,512.287,84.484Z" fill="#fff"/>
    </g>
  </g>
</svg>
