<svg xmlns="http://www.w3.org/2000/svg" width="108.369" height="28.842" viewBox="0 0 108.369 28.842"><g transform="translate(-587.191 -18.674)"><path d="M595.994,24.144a8.084,8.084,0,0,0-2.12,2.1,8.959,8.959,0,0,0-1.131,2.562,11.509,11.509,0,0,0-.4,3.083,8.168,8.168,0,0,0,.476,2.937,3.969,3.969,0,0,0,1.444,1.909,4.108,4.108,0,0,0,2.4.669,4.584,4.584,0,0,0,1.965-.391,3.648,3.648,0,0,0,1.369-1.094,4.893,4.893,0,0,0,.8-1.615L601,33.59h-4.7l.774-3.72h8.78L603.2,41.357h-3.393l1.012-5.058.446.522a9.081,9.081,0,0,1-1.369,2.643,5.406,5.406,0,0,1-2.038,1.632,6.682,6.682,0,0,1-2.813.554,7.252,7.252,0,0,1-3.973-1.125,7.951,7.951,0,0,1-2.827-3.215,10.842,10.842,0,0,1-1.056-4.856v-.119a.048.048,0,0,1,0-.017C590.606,24.834,595.994,24.144,595.994,24.144Z" fill="#74b95c"/><path d="M587.246,30.96a11.31,11.31,0,0,1,7.732-7.723,7.362,7.362,0,0,1,7.445,2.106L600.992,27.1h6.586l-2.005-8.424-.859,2.808a10.159,10.159,0,0,0-11.741-.7A11.376,11.376,0,0,0,587.246,30.96Z" fill="#314963"/><path d="M666.238,36.169c-.178.195-.356.325-.533.52a4.77,4.77,0,0,1-2.428,1.428c-.83.195-1.3-.13-1.54-.974a4.431,4.431,0,0,1-.178-1.753,6.967,6.967,0,0,1,.474-2.207,6.173,6.173,0,0,1,1.836-2.663,1.577,1.577,0,0,1,1.125-.454,2.206,2.206,0,0,1,1.48.844,14.09,14.09,0,0,1,.77,1.234h0c.3-1.1.533-2.208.77-3.312a.894.894,0,0,0-.059-.389A3.956,3.956,0,0,0,666,26.884a4.42,4.42,0,0,0-3.909.52,8.153,8.153,0,0,0-2.665,2.6,10.567,10.567,0,0,0-1.717,4.805,7.616,7.616,0,0,0,.474,3.831,4.234,4.234,0,0,0,3.79,2.792,5.209,5.209,0,0,0,3.2-.974.514.514,0,0,0,.118-.26c.237-1.039.474-2.078.711-3.052a5.924,5.924,0,0,0,.237-.974h0c.059-.065,0-.065,0,0Z" fill="#74b95c"/><path d="M647.939,41.364c0-.065.059-.13.059-.195.177-.779.355-1.493.533-2.273.474-2.012,1.007-4.025,1.48-6.1a1.4,1.4,0,0,1,.415-.844c.474-.455.947-.909,1.48-1.364a2.326,2.326,0,0,1,.592-.259.937.937,0,0,1,1.007,1.233l-.355,1.559c-.533,2.272-1.066,4.61-1.658,6.882-.119.52-.237.974-.356,1.494-.118.649-.118,1.3-.177,2.013,0,.259-.059.519-.059.779a3.759,3.759,0,0,0,2.487,3.051,3.342,3.342,0,0,0,1.954.065,5.032,5.032,0,0,0,2.724-1.363c.178-.13.178-.26.119-.52-.237-.714-.474-1.493-.711-2.207,0-.065-.059-.13-.118-.26a2.08,2.08,0,0,1-.474.325,1.115,1.115,0,0,1-1.658-.455,2.8,2.8,0,0,1-.237-1.818c.177-.714.355-1.493.533-2.208.533-2.142,1.066-4.35,1.6-6.493a7.5,7.5,0,0,0,.3-2.013,3.768,3.768,0,0,0-1.6-3.051,2.6,2.6,0,0,0-.948-.455,3.771,3.771,0,0,0-1.9.065,6.626,6.626,0,0,0-1.836.779l.178-.974h-3.849c-1.185,4.805-2.31,9.61-3.494,14.48C645.451,41.364,646.7,41.364,647.939,41.364Z" fill="#74b95c"/><path d="M618.565,26.819c-.236,1.039-.473,2.078-.769,3.182h1.776c-.888,3.831-1.776,7.6-2.724,11.363H620.7c1.007-3.766,1.895-7.6,2.784-11.363h2.428c.237-1.039.533-2.078.77-3.182h-2.428c.473-2.142,1.006-4.155,1.48-6.3h-3.849c-.474,2.078-1.007,4.221-1.481,6.3Z" fill="#74b95c"/><path d="M624.428,41.364h3.85c1.717-7.272,3.494-14.545,5.211-21.817H629.58Z" fill="#74b95c"/><path d="M675.653,36.754h0c0,.065.06.065,0,0C675.713,36.819,675.653,36.819,675.653,36.754Z" fill="#74b95c"/><path d="M640.358,28.053c.119-.455.237-.844.356-1.234h3.79c-.119.52-.237.974-.356,1.429-.592,2.4-1.125,4.87-1.717,7.272-.118.584-.3,1.1-.414,1.688-.119.52.118.909.592.844.177,0,.414-.065.592-.065a.417.417,0,0,0,.237-.065c-.119.39-.178.78-.3,1.1-.119.455-.237.909-.356,1.3a.514.514,0,0,1-.118.26,4.282,4.282,0,0,1-2.724.974,2.6,2.6,0,0,1-2.014-1.1.894.894,0,0,1-.177-.26c-.237.195-.474.325-.652.455a3.6,3.6,0,0,1-2.25.714,3.246,3.246,0,0,1-2.961-2.208,7.9,7.9,0,0,1-.474-3.7,12.261,12.261,0,0,1,1.895-5.779,7.247,7.247,0,0,1,2.961-2.857,2.963,2.963,0,0,1,3.02,0A6.71,6.71,0,0,1,640.358,28.053Zm-5.27,7.857c.059.389.059.714.118,1.1.178,1.039.829,1.364,1.6.78a7.394,7.394,0,0,0,.711-.715,8.624,8.624,0,0,0,1.362-2.792,8.019,8.019,0,0,0,.414-2.077,4.7,4.7,0,0,0-.177-1.559A.913.913,0,0,0,637.93,30a2.009,2.009,0,0,0-.829.584A8.14,8.14,0,0,0,635.088,35.91Z" fill="#74b95c"/><path d="M617.263,32.533a9.982,9.982,0,0,1-1.3,4.935,8.858,8.858,0,0,1-3.139,3.441,4.385,4.385,0,0,1-6.81-2.727,9.814,9.814,0,0,1,.414-6.1,10.318,10.318,0,0,1,1.718-2.987,6.655,6.655,0,0,1,3.79-2.338,4.426,4.426,0,0,1,4.974,3.572l.178.974A9.025,9.025,0,0,1,617.263,32.533Zm-3.435-.26a4.556,4.556,0,0,0-.237-1.688A.9.9,0,0,0,612.584,30a1.461,1.461,0,0,0-.473.195,3.767,3.767,0,0,0-1.363,1.428,9.813,9.813,0,0,0-1.3,3.636,4.61,4.61,0,0,0,.059,2.013c.237.844.829,1.169,1.54.714a2.878,2.878,0,0,0,.947-.779A8.52,8.52,0,0,0,613.828,32.273Z" fill="#74b95c"/><path d="M675.653,36.884a2.049,2.049,0,0,0-.118.584c-.237,1.039-.474,2.078-.711,3.052a.752.752,0,0,1-.3.454,4.3,4.3,0,0,1-3.967.325,4.173,4.173,0,0,1-1.6-.974,4.828,4.828,0,0,1-1.422-2.467,9.677,9.677,0,0,1,.237-5.2,9.264,9.264,0,0,1,3.79-5.065,4.933,4.933,0,0,1,3.139-.844,4.62,4.62,0,0,1,2.546.974,3.262,3.262,0,0,1,1.126,2.208,5.385,5.385,0,0,1-1.3,4.415,6.338,6.338,0,0,1-3.376,2.208,5.11,5.11,0,0,1-2.428,0,.417.417,0,0,1-.237-.065,1.827,1.827,0,0,0,1.185,1.818,2.707,2.707,0,0,0,1.006-.065,4.329,4.329,0,0,0,2.192-1.169c.059-.065.177-.129.236-.194Zm-4.441-3.052a.2.2,0,0,1,.118.065,4.136,4.136,0,0,0,2.784-.325,2.71,2.71,0,0,0,1.243-1.493A1.618,1.618,0,0,0,675,30.39a.99.99,0,0,0-1.362-.064c-.059,0-.059.064-.118.064a4.521,4.521,0,0,0-1.185,1.234A6.28,6.28,0,0,0,671.212,33.832Z" fill="#74b95c"/><path d="M618.565,26.819h1.777c.474-2.077,1.007-4.22,1.481-6.3h3.849c-.474,2.078-.948,4.156-1.481,6.3h2.428c-.3,1.1-.533,2.078-.769,3.182h-2.428c-.83,3.766-1.718,7.6-2.665,11.363h-3.85c.889-3.766,1.777-7.532,2.724-11.363h-1.776C618.092,28.9,618.329,27.923,618.565,26.819Z" fill="#74b95c"/><path d="M624.428,41.364c1.718-7.272,3.494-14.545,5.212-21.817h3.908c-1.776,7.272-3.553,14.545-5.27,21.817Z" fill="#74b95c"/><path d="M666.238,36.169h0c0-.065.059-.065,0,0Z" fill="#74b95c"/><path d="M675.653,36.754c0,.065.06.065,0,0,.06.065,0,.065,0,0Z" fill="#74b95c"/><path d="M681.931,29.157l.059-.065S681.99,29.157,681.931,29.157Z" fill="#74b95c"/><path d="M689.865,39.571a1.978,1.978,0,0,1-1.926,2.072,1.954,1.954,0,0,1-1.926-2.072,1.928,1.928,0,0,1,1.962-2.032A1.891,1.891,0,0,1,689.865,39.571Zm-.472-.04a1.527,1.527,0,0,0-1.745-1.634,1.575,1.575,0,0,0-1.163,1.474,1.741,1.741,0,0,0,.509,1.4,1.469,1.469,0,0,0,1.49.279A1.534,1.534,0,0,0,689.393,39.531Z" fill="#314963"/><path d="M687.612,40.646h-.4V38.575a2.153,2.153,0,0,1,1.127,0,.5.5,0,0,1,.29.8,2,2,0,0,1-.29.24c.4.2.327.637.472,1.035h-.4c-.036,0-.072-.079-.109-.119-.036-.12-.072-.279-.109-.4-.072-.278-.145-.318-.4-.318h-.218A6.5,6.5,0,0,1,687.612,40.646Zm.073-1.155c.145-.04.29-.04.436-.08a.3.3,0,0,0,.181-.279.248.248,0,0,0-.181-.239.807.807,0,0,0-.436,0Z" fill="#314963"/><path d="M688.945,37.645l6.615-3.966-6.3-5.553.672,3.23a6.45,6.45,0,0,0-4.031.113,11.384,11.384,0,0,0-5.168,4.079l-1.653,6.573h4.031l.93-3.513s1.55-3.4,3.927-3.966a2.869,2.869,0,0,1,1.861.453Z" fill="#314963"/><path d="M679.54,26.936l-.62,3.74h2.894l-.517,2.379a11.854,11.854,0,0,1,4.58-2.8l.016,0,.729-3.311H679.54Z" fill="#74b95c"/></g></svg>